<svg id="The_Squad" data-name="The Squad" xmlns="http://www.w3.org/2000/svg" xmlns:xlink="http://www.w3.org/1999/xlink" viewBox="0 0 2485.15 1659.58"><defs><style>.cls-1,.cls-16,.cls-21,.cls-26,.cls-32,.cls-36,.cls-41{fill:none;}.cls-2{fill:#a41e30;}.cls-3{fill:#6e1723;}.cls-4{fill:#461215;}.cls-5{fill:#020202;}.cls-6{clip-path:url(#clip-path);}.cls-7{fill:url(#Plaid);}.cls-8{fill:#f7d5c2;}.cls-9{fill:#613d31;}.cls-10{fill:#212120;}.cls-11{fill:#2b2b2b;}.cls-12{fill:#ce975a;}.cls-13{fill:#4c4c4b;}.cls-14{fill:#493322;}.cls-15{fill:#a62f3e;}.cls-16{stroke:#342119;}.cls-16,.cls-21,.cls-26,.cls-32,.cls-36,.cls-41{stroke-linecap:round;stroke-miterlimit:10;stroke-width:23px;}.cls-17{fill:#342119;}.cls-18{clip-path:url(#clip-path-3);}.cls-19{fill:url(#Plaid-3);}.cls-20{fill:#8e562e;}.cls-21{stroke:#5f3c30;}.cls-22{fill:#5f3c30;}.cls-23{clip-path:url(#clip-path-5);}.cls-24{fill:url(#Plaid-5);}.cls-25{fill:#bb9166;}.cls-26{stroke:#5e3a2e;}.cls-27{fill:#5e3a2e;}.cls-28{clip-path:url(#clip-path-7);}.cls-29{fill:url(#Plaid-7);}.cls-30{fill:#d8b094;}.cls-31{fill:#fbe100;}.cls-32{stroke:#8d542b;}.cls-33{fill:#8d542b;}.cls-34{clip-path:url(#clip-path-9);}.cls-35{fill:url(#Plaid-9);}.cls-36{stroke:#b88f61;}.cls-37{fill:#b88f61;}.cls-38{clip-path:url(#clip-path-11);}.cls-39{fill:url(#Plaid-11);}.cls-40{fill:#ffc83e;}.cls-41{stroke:#f6884a;}.cls-42{fill:#f6884a;}</style><clipPath id="clip-path" transform="translate(-7.43 17.79)"><rect class="cls-1" x="1864.19" y="913.17" width="332.79" height="405.11" rx="156.49"/></clipPath><pattern id="Plaid" data-name="Plaid" width="125.9" height="125.9" patternTransform="translate(-155.72 -313.93) scale(0.98)" patternUnits="userSpaceOnUse" viewBox="0 0 125.9 125.9"><rect class="cls-1" width="125.9" height="125.9"/><rect class="cls-2" y="62.95" width="62.95" height="62.95"/><rect class="cls-3" width="62.95" height="62.95"/><rect class="cls-3" x="62.95" y="62.95" width="62.95" height="62.95"/><rect class="cls-4" x="62.95" width="62.95" height="62.95"/></pattern><clipPath id="clip-path-3" transform="translate(-7.43 17.79)"><rect class="cls-1" x="1014.19" y="913.17" width="332.79" height="405.11" rx="156.49"/></clipPath><pattern id="Plaid-3" data-name="Plaid" width="125.9" height="125.9" patternTransform="translate(-261.97 -313.93) scale(0.98)" patternUnits="userSpaceOnUse" viewBox="0 0 125.9 125.9"><rect class="cls-1" width="125.9" height="125.9"/><rect class="cls-2" y="62.95" width="62.95" height="62.95"/><rect class="cls-3" width="62.95" height="62.95"/><rect class="cls-3" x="62.95" y="62.95" width="62.95" height="62.95"/><rect class="cls-4" x="62.95" width="62.95" height="62.95"/></pattern><clipPath id="clip-path-5" transform="translate(-7.43 17.79)"><rect class="cls-1" x="164.19" y="913.17" width="332.79" height="405.11" rx="156.49"/></clipPath><pattern id="Plaid-5" data-name="Plaid" width="125.9" height="125.9" patternTransform="translate(-244.26 -313.93) scale(0.98)" patternUnits="userSpaceOnUse" viewBox="0 0 125.9 125.9"><rect class="cls-1" width="125.9" height="125.9"/><rect class="cls-2" y="62.95" width="62.95" height="62.95"/><rect class="cls-3" width="62.95" height="62.95"/><rect class="cls-3" x="62.95" y="62.95" width="62.95" height="62.95"/><rect class="cls-4" x="62.95" width="62.95" height="62.95"/></pattern><clipPath id="clip-path-7" transform="translate(-7.43 17.79)"><rect class="cls-1" x="1864.19" y="63.17" width="332.79" height="405.11" rx="156.49"/></clipPath><pattern id="Plaid-7" data-name="Plaid" width="125.9" height="125.9" patternTransform="translate(-35.74 -203.65) scale(0.98)" patternUnits="userSpaceOnUse" viewBox="0 0 125.9 125.9"><rect class="cls-1" width="125.9" height="125.9"/><rect class="cls-2" y="62.95" width="62.95" height="62.95"/><rect class="cls-3" width="62.95" height="62.95"/><rect class="cls-3" x="62.95" y="62.95" width="62.95" height="62.95"/><rect class="cls-4" x="62.95" width="62.95" height="62.95"/></pattern><clipPath id="clip-path-9" transform="translate(-7.43 17.79)"><rect class="cls-1" x="1014.19" y="63.17" width="332.79" height="405.11" rx="156.49"/></clipPath><pattern id="Plaid-9" data-name="Plaid" width="125.9" height="125.9" patternTransform="translate(-248.24 -203.65) scale(0.98)" patternUnits="userSpaceOnUse" viewBox="0 0 125.9 125.9"><rect class="cls-1" width="125.9" height="125.9"/><rect class="cls-2" y="62.95" width="62.95" height="62.95"/><rect class="cls-3" width="62.95" height="62.95"/><rect class="cls-3" x="62.95" y="62.95" width="62.95" height="62.95"/><rect class="cls-4" x="62.95" width="62.95" height="62.95"/></pattern><clipPath id="clip-path-11" transform="translate(-7.43 17.79)"><rect class="cls-1" x="164.19" y="63.17" width="332.79" height="405.11" rx="156.49"/></clipPath><pattern id="Plaid-11" data-name="Plaid" width="125.9" height="125.9" patternTransform="translate(-244.26 -296.22) scale(0.98)" patternUnits="userSpaceOnUse" viewBox="0 0 125.9 125.9"><rect class="cls-1" width="125.9" height="125.9"/><rect class="cls-2" y="62.95" width="62.95" height="62.95"/><rect class="cls-3" width="62.95" height="62.95"/><rect class="cls-3" x="62.95" y="62.95" width="62.95" height="62.95"/><rect class="cls-4" x="62.95" width="62.95" height="62.95"/></pattern></defs><title>man_lumberjack</title><g id="Man_Lumberjack:_Dark_Skin_Tone" data-name="Man Lumberjack: Dark Skin Tone"><g id="Outlined"><path class="cls-5" d="M2354.65,1641.79H1707.43V1511.85c0-117.82,95.85-213.68,213.67-213.68H2141a213.68,213.68,0,0,1,213.68,213.68Zm-547.22-100h447.22v-29.94A113.81,113.81,0,0,0,2141,1398.17H1921.1a113.8,113.8,0,0,0-113.67,113.68Z" transform="translate(-7.43 17.79)"/><path class="cls-5" d="M2377.26,1641.54h-85.48a65.72,65.72,0,0,1-56.75-32.65,73.17,73.17,0,0,1-31.75-60.17v-50.63a73.16,73.16,0,0,1,73.07-73.08h1.11V1291.39L2449,1472.34a99.79,99.79,0,0,1-71.71,169.2Zm-4.68-99.89h0Zm-46.47-.11h48.66l1.23,0h.75l-.15-.15-14.88-15.7-35.17-.64h-.44Z" transform="translate(-7.43 17.79)"/><path class="cls-5" d="M2377.26,1641.54h-85.48a65.72,65.72,0,0,1-56.75-32.65,73.17,73.17,0,0,1-31.75-60.17v-50.63a73.16,73.16,0,0,1,73.07-73.08h1.11V1291.39L2449,1472.34a99.79,99.79,0,0,1-71.71,169.2Zm-4.68-99.89h0Zm-46.47-.11h48.66l1.23,0h.75l-.15-.15-14.88-15.7-35.17-.64h-.44Z" transform="translate(-7.43 17.79)"/><path class="cls-5" d="M2377.26,1641.54h-85.48a65.72,65.72,0,0,1-56.75-32.65,73.17,73.17,0,0,1-31.75-60.17v-50.63a73.16,73.16,0,0,1,73.07-73.08h1.11V1291.39L2449,1472.34a99.79,99.79,0,0,1-71.71,169.2Zm-4.68-99.89h0Zm-46.47-.11h48.66l1.23,0h.75l-.15-.15-14.88-15.7-35.17-.64h-.44Z" transform="translate(-7.43 17.79)"/><g id="Head"><path class="cls-5" d="M2040.49,1368.28h-19.81c-113.86,0-206.49-92.63-206.49-206.49v-92.12c0-113.87,92.63-206.5,206.49-206.5h19.81c113.86,0,206.49,92.63,206.49,206.5v92.12C2247,1275.65,2154.35,1368.28,2040.49,1368.28Zm-19.81-405.11a106.61,106.61,0,0,0-106.49,106.5v92.12a106.61,106.61,0,0,0,106.49,106.49h19.81A106.61,106.61,0,0,0,2147,1161.79v-92.12a106.61,106.61,0,0,0-106.49-106.5Z" transform="translate(-7.43 17.79)"/><path class="cls-5" d="M2040.49,1369.28h-19.81a205.23,205.23,0,0,1-80.7-16.41,209,209,0,0,1-110.38-110.38,205.23,205.23,0,0,1-16.41-80.7v-92.12A205.24,205.24,0,0,1,1829.6,989,209,209,0,0,1,1940,878.58a205.23,205.23,0,0,1,80.7-16.41h19.81a205.23,205.23,0,0,1,80.7,16.41A209,209,0,0,1,2231.57,989a205.24,205.24,0,0,1,16.41,80.71v92.12a205.2,205.2,0,0,1-16.41,80.7,208.95,208.95,0,0,1-110.38,110.38A205.23,205.23,0,0,1,2040.49,1369.28Zm-19.81-406.11a106.61,106.61,0,0,0-106.49,106.5v92.12a106.61,106.61,0,0,0,106.49,106.49h19.81A106.61,106.61,0,0,0,2147,1161.79v-92.12a106.61,106.61,0,0,0-106.49-106.5Z" transform="translate(-7.43 17.79)"/></g><g id="Hair_Clip" data-name="Hair Clip"><g class="cls-6"><path class="cls-5" d="M2247,1176H2124.21v-93.57a54.66,54.66,0,0,0-54.6-54.6h-78.05a54.66,54.66,0,0,0-54.6,54.6V1176H1814.19V863.17H2247Z" transform="translate(-7.43 17.79)"/><path class="cls-5" d="M2247,1176H2124.21v-93.57a54.66,54.66,0,0,0-54.6-54.6h-78.05a54.66,54.66,0,0,0-54.6,54.6V1176H1814.19V863.17H2247Z" transform="translate(-7.43 17.79)"/><path class="cls-5" d="M2247,1176H2124.21v-93.57a54.66,54.66,0,0,0-54.6-54.6h-78.05a54.66,54.66,0,0,0-54.6,54.6V1176H1814.19V863.17H2247Z" transform="translate(-7.43 17.79)"/><path class="cls-5" d="M2192.08,1126.64H2065.8c-76.3,0-138.38-62.08-138.38-138.38V970.6c0-76.31,62.08-138.39,138.38-138.39h126.28c76.3,0,138.38,62.08,138.38,138.39v17.66C2330.46,1064.56,2268.38,1126.64,2192.08,1126.64ZM2065.8,932.21a38.43,38.43,0,0,0-38.38,38.39v17.66a38.43,38.43,0,0,0,38.38,38.38h126.28a38.43,38.43,0,0,0,38.38-38.38V970.6a38.43,38.43,0,0,0-38.38-38.39Z" transform="translate(-7.43 17.79)"/></g></g><rect class="cls-5" x="2218.69" y="1226.98" width="151.35" height="315.83"/><path class="cls-5" d="M2395.83,1420.14l-31.29-33a94.75,94.75,0,0,0-106.14-21.89l-41.75,18-21.87-39.84a158.74,158.74,0,0,1,0-152.53l21.87-39.85,41.75,18a94.81,94.81,0,0,0,106.14-21.89l31.29-33,35.81,28a158.67,158.67,0,0,1,0,250Zm-39.63-153q9,3,17.85,6.83,8.52,3.73,16.58,8.23a59.42,59.42,0,0,0,0-30.12q-8.05,4.5-16.58,8.24Q2365.25,1264.17,2356.2,1267.12Z" transform="translate(-7.43 17.79)"/><path class="cls-5" d="M2395.83,1420.14l-31.29-33a94.75,94.75,0,0,0-106.14-21.89l-41.75,18-21.87-39.84a158.74,158.74,0,0,1,0-152.53l21.87-39.85,41.75,18a94.81,94.81,0,0,0,106.14-21.89l31.29-33,35.81,28a158.67,158.67,0,0,1,0,250Zm-39.63-153q9,3,17.85,6.83,8.52,3.73,16.58,8.23a59.42,59.42,0,0,0,0-30.12q-8.05,4.5-16.58,8.24Q2365.25,1264.17,2356.2,1267.12Z" transform="translate(-7.43 17.79)"/><path class="cls-5" d="M2395.83,1420.14l-31.29-33a94.75,94.75,0,0,0-106.14-21.89l-41.75,18-21.87-39.84a158.74,158.74,0,0,1,0-152.53l21.87-39.85,41.75,18a94.81,94.81,0,0,0,106.14-21.89l31.29-33,35.81,28a158.67,158.67,0,0,1,0,250Zm-39.63-153q9,3,17.85,6.83,8.52,3.73,16.58,8.23a59.42,59.42,0,0,0,0-30.12q-8.05,4.5-16.58,8.24Q2365.25,1264.17,2356.2,1267.12Z" transform="translate(-7.43 17.79)"/><path id="Body" class="cls-7" d="M1757.43,1591.79v-79.94a163.68,163.68,0,0,1,163.67-163.68H2141a163.68,163.68,0,0,1,163.68,163.68v79.94Z" transform="translate(-7.43 17.79)"/><path class="cls-8" d="M2412.89,1507h0l-85.43-90.13V1475l-.48,0h-50.63a23.14,23.14,0,0,0-23.07,23.08v50.63a23.13,23.13,0,0,0,22.83,23.06v4.09a15.71,15.71,0,0,0,15.67,15.67h84c.16,0,.31,0,.47,0l1,0a49.79,49.79,0,0,0,35.63-84.58Z" transform="translate(-7.43 17.79)"/><path class="cls-9" d="M2412.89,1507h0l-85.43-90.13V1475l-.48,0h-50.63a23.14,23.14,0,0,0-23.07,23.08v50.63a23.13,23.13,0,0,0,22.83,23.06v4.09a15.71,15.71,0,0,0,15.67,15.67h84c.16,0,.31,0,.47,0l1,0a49.79,49.79,0,0,0,35.63-84.58Z" transform="translate(-7.43 17.79)"/><g id="Head-2" data-name="Head"><rect class="cls-9" x="1856.76" y="930.96" width="332.79" height="405.11" rx="156.49"/></g><g id="Hair_Clip-2" data-name="Hair Clip"><g class="cls-6"><path class="cls-10" d="M1864.19,913.17V1126H1887v-43.57c0-57.53,47.07-104.6,104.6-104.6h78c57.54,0,104.61,47.07,104.61,104.6V1126H2197V913.17Z" transform="translate(-7.43 17.79)"/><path class="cls-11" d="M1864.19,913.17V1126H1887v-43.57c0-57.53,47.07-104.6,104.6-104.6h78c57.54,0,104.61,47.07,104.61,104.6V1126H2197V913.17Z" transform="translate(-7.43 17.79)"/><rect id="Hair_Fringe" data-name="Hair Fringe" class="cls-11" x="1969.99" y="900" width="303.05" height="194.43" rx="88.39"/></g></g><rect id="Axe_Arm" data-name="Axe Arm" class="cls-12" x="2268.69" y="1276.98" width="51.35" height="215.83"/><path class="cls-13" d="M2400.83,1181.51a144.82,144.82,0,0,1-162.22,33.41,108.75,108.75,0,0,0,0,104.41,144.77,144.77,0,0,1,162.22,33.41,108.67,108.67,0,0,0,0-171.23Z" transform="translate(-7.43 17.79)"/></g><rect id="Suspender_Right" data-name="Suspender Right" class="cls-14" x="2129.13" y="1365.96" width="60.87" height="243.61"/><rect id="Suspender_Left" data-name="Suspender Left" class="cls-14" x="1857.22" y="1365.96" width="58.02" height="243.61"/><polygon id="Collar_Right" data-name="Collar Right" class="cls-15" points="2074.78 1339.67 2023.61 1390.83 2074.16 1441.38 2149.53 1366.02 2123.18 1339.67 2074.78 1339.67"/><polygon id="Collar_Left" data-name="Collar Left" class="cls-15" points="1972.45 1339.67 2023.61 1390.83 1973.06 1441.38 1897.69 1366.02 1924.04 1339.67 1972.45 1339.67"/><polygon id="Neck" class="cls-9" points="2023.61 1390.8 1998.58 1365.96 2048.65 1365.96 2023.61 1390.8"/><path id="Cute_Mouth" data-name="Cute Mouth" class="cls-16" d="M1993.32,1251.26c21.77,21.38,53.46,20.92,74.53,0" transform="translate(-7.43 17.79)"/><path id="Nose" class="cls-17" d="M2054.1,1178.14a23.52,23.52,0,0,1-47,0Z" transform="translate(-7.43 17.79)"/><rect id="Eye_Right" data-name="Eye Right" class="cls-5" x="1925.71" y="1123.94" width="50.22" height="71.98" rx="23.62"/><rect id="Eye_Left" data-name="Eye Left" class="cls-5" x="2071.3" y="1123.94" width="50.22" height="71.98" rx="23.62"/></g><g id="Man_Lumberjack:_Medium-Dark_Skin_Tone" data-name="Man Lumberjack: Medium-Dark Skin Tone"><g id="Outlined-2" data-name="Outlined"><path class="cls-5" d="M1504.65,1641.79H857.43V1511.85a213.68,213.68,0,0,1,213.67-213.68H1291a213.68,213.68,0,0,1,213.68,213.68Zm-547.22-100h447.22v-29.94A113.81,113.81,0,0,0,1291,1398.17H1071.1a113.8,113.8,0,0,0-113.67,113.68Z" transform="translate(-7.43 17.79)"/><path class="cls-5" d="M1527.26,1641.54h-85.48a65.72,65.72,0,0,1-56.75-32.65,73.17,73.17,0,0,1-31.75-60.17v-50.63a73.16,73.16,0,0,1,73.07-73.08h1.11V1291.39L1599,1472.34a99.79,99.79,0,0,1-71.71,169.2Zm-4.68-99.89h0Zm-46.47-.11h48.66l1.23,0h.75l-.15-.15-14.88-15.7-35.17-.64h-.44Z" transform="translate(-7.43 17.79)"/><path class="cls-5" d="M1527.26,1641.54h-85.48a65.72,65.72,0,0,1-56.75-32.65,73.17,73.17,0,0,1-31.75-60.17v-50.63a73.16,73.16,0,0,1,73.07-73.08h1.11V1291.39L1599,1472.34a99.79,99.79,0,0,1-71.71,169.2Zm-4.68-99.89h0Zm-46.47-.11h48.66l1.23,0h.75l-.15-.15-14.88-15.7-35.17-.64h-.44Z" transform="translate(-7.43 17.79)"/><path class="cls-5" d="M1527.26,1641.54h-85.48a65.72,65.72,0,0,1-56.75-32.65,73.17,73.17,0,0,1-31.75-60.17v-50.63a73.16,73.16,0,0,1,73.07-73.08h1.11V1291.39L1599,1472.34a99.79,99.79,0,0,1-71.71,169.2Zm-4.68-99.89h0Zm-46.47-.11h48.66l1.23,0h.75l-.15-.15-14.88-15.7-35.17-.64h-.44Z" transform="translate(-7.43 17.79)"/><g id="Head-3" data-name="Head"><path class="cls-5" d="M1190.49,1368.28h-19.81c-113.86,0-206.49-92.63-206.49-206.49v-92.12c0-113.87,92.63-206.5,206.49-206.5h19.81c113.86,0,206.49,92.63,206.49,206.5v92.12C1397,1275.65,1304.35,1368.28,1190.49,1368.28Zm-19.81-405.11a106.61,106.61,0,0,0-106.49,106.5v92.12a106.61,106.61,0,0,0,106.49,106.49h19.81A106.61,106.61,0,0,0,1297,1161.79v-92.12a106.61,106.61,0,0,0-106.49-106.5Z" transform="translate(-7.43 17.79)"/><path class="cls-5" d="M1190.49,1369.28h-19.81a205.2,205.2,0,0,1-80.7-16.41A208.95,208.95,0,0,1,979.6,1242.49a205.2,205.2,0,0,1-16.41-80.7v-92.12A205.24,205.24,0,0,1,979.6,989,209,209,0,0,1,1090,878.58a205.23,205.23,0,0,1,80.7-16.41h19.81a205.23,205.23,0,0,1,80.7,16.41A209,209,0,0,1,1381.57,989a205.24,205.24,0,0,1,16.41,80.71v92.12a205.2,205.2,0,0,1-16.41,80.7,208.95,208.95,0,0,1-110.38,110.38A205.23,205.23,0,0,1,1190.49,1369.28Zm-19.81-406.11a106.61,106.61,0,0,0-106.49,106.5v92.12a106.61,106.61,0,0,0,106.49,106.49h19.81A106.61,106.61,0,0,0,1297,1161.79v-92.12a106.61,106.61,0,0,0-106.49-106.5Z" transform="translate(-7.43 17.79)"/></g><g id="Hair_Clip-4" data-name="Hair Clip"><g class="cls-18"><path class="cls-5" d="M1397,1176H1274.21v-93.57a54.67,54.67,0,0,0-54.61-54.6h-78a54.66,54.66,0,0,0-54.6,54.6V1176H964.19V863.17H1397Z" transform="translate(-7.43 17.79)"/><path class="cls-5" d="M1397,1176H1274.21v-93.57a54.67,54.67,0,0,0-54.61-54.6h-78a54.66,54.66,0,0,0-54.6,54.6V1176H964.19V863.17H1397Z" transform="translate(-7.43 17.79)"/><path class="cls-5" d="M1397,1176H1274.21v-93.57a54.67,54.67,0,0,0-54.61-54.6h-78a54.66,54.66,0,0,0-54.6,54.6V1176H964.19V863.17H1397Z" transform="translate(-7.43 17.79)"/><path class="cls-5" d="M1342.08,1126.64H1215.8c-76.3,0-138.38-62.08-138.38-138.38V970.6c0-76.31,62.08-138.39,138.38-138.39h126.28c76.3,0,138.38,62.08,138.38,138.39v17.66C1480.46,1064.56,1418.38,1126.64,1342.08,1126.64ZM1215.8,932.21a38.43,38.43,0,0,0-38.38,38.39v17.66a38.43,38.43,0,0,0,38.38,38.38h126.28a38.43,38.43,0,0,0,38.38-38.38V970.6a38.43,38.43,0,0,0-38.38-38.39Z" transform="translate(-7.43 17.79)"/></g></g><rect class="cls-5" x="1368.69" y="1226.98" width="151.35" height="315.83"/><path class="cls-5" d="M1545.83,1420.14l-31.29-33a94.75,94.75,0,0,0-106.14-21.89l-41.75,18-21.87-39.84a158.74,158.74,0,0,1,0-152.53l21.87-39.85,41.75,18a94.81,94.81,0,0,0,106.14-21.89l31.29-33,35.81,28a158.67,158.67,0,0,1,0,250Zm-39.63-153q9,3,17.85,6.83,8.52,3.73,16.58,8.23a59.42,59.42,0,0,0,0-30.12q-8.06,4.5-16.58,8.24Q1515.25,1264.17,1506.2,1267.12Z" transform="translate(-7.43 17.79)"/><path class="cls-5" d="M1545.83,1420.14l-31.29-33a94.75,94.75,0,0,0-106.14-21.89l-41.75,18-21.87-39.84a158.74,158.74,0,0,1,0-152.53l21.87-39.85,41.75,18a94.81,94.81,0,0,0,106.14-21.89l31.29-33,35.81,28a158.67,158.67,0,0,1,0,250Zm-39.63-153q9,3,17.85,6.83,8.52,3.73,16.58,8.23a59.42,59.42,0,0,0,0-30.12q-8.06,4.5-16.58,8.24Q1515.25,1264.17,1506.2,1267.12Z" transform="translate(-7.43 17.79)"/><path class="cls-5" d="M1545.83,1420.14l-31.29-33a94.75,94.75,0,0,0-106.14-21.89l-41.75,18-21.87-39.84a158.74,158.74,0,0,1,0-152.53l21.87-39.85,41.75,18a94.81,94.81,0,0,0,106.14-21.89l31.29-33,35.81,28a158.67,158.67,0,0,1,0,250Zm-39.63-153q9,3,17.85,6.83,8.52,3.73,16.58,8.23a59.42,59.42,0,0,0,0-30.12q-8.06,4.5-16.58,8.24Q1515.25,1264.17,1506.2,1267.12Z" transform="translate(-7.43 17.79)"/><path id="Body-2" data-name="Body" class="cls-19" d="M907.43,1591.79v-79.94a163.68,163.68,0,0,1,163.67-163.68H1291a163.68,163.68,0,0,1,163.68,163.68v79.94Z" transform="translate(-7.43 17.79)"/><path class="cls-8" d="M1562.89,1507h0l-85.43-90.13V1475l-.48,0h-50.63a23.14,23.14,0,0,0-23.07,23.08v50.63a23.13,23.13,0,0,0,22.83,23.06v4.09a15.71,15.71,0,0,0,15.67,15.67h84c.16,0,.31,0,.47,0l1,0a49.79,49.79,0,0,0,35.63-84.58Z" transform="translate(-7.43 17.79)"/><path class="cls-20" d="M1562.89,1507h0l-85.43-90.13V1475l-.48,0h-50.63a23.14,23.14,0,0,0-23.07,23.08v50.63a23.13,23.13,0,0,0,22.83,23.06v4.09a15.71,15.71,0,0,0,15.67,15.67h84c.16,0,.31,0,.47,0l1,0a49.79,49.79,0,0,0,35.63-84.58Z" transform="translate(-7.43 17.79)"/><g id="Head-4" data-name="Head"><rect class="cls-20" x="1006.76" y="930.96" width="332.79" height="405.11" rx="156.49"/></g><g id="Hair_Clip-5" data-name="Hair Clip"><g class="cls-18"><path class="cls-10" d="M1014.19,913.17V1126H1037v-43.57c0-57.53,47.07-104.6,104.6-104.6h78c57.54,0,104.61,47.07,104.61,104.6V1126H1347V913.17Z" transform="translate(-7.43 17.79)"/><path class="cls-11" d="M1014.19,913.17V1126H1037v-43.57c0-57.53,47.07-104.6,104.6-104.6h78c57.54,0,104.61,47.07,104.61,104.6V1126H1347V913.17Z" transform="translate(-7.43 17.79)"/><rect id="Hair_Fringe-2" data-name="Hair Fringe" class="cls-11" x="1119.99" y="900" width="303.05" height="194.43" rx="88.39"/></g></g><rect id="Axe_Arm-2" data-name="Axe Arm" class="cls-12" x="1418.69" y="1276.98" width="51.35" height="215.83"/><path class="cls-13" d="M1550.83,1181.51a144.82,144.82,0,0,1-162.22,33.41,108.75,108.75,0,0,0,0,104.41,144.77,144.77,0,0,1,162.22,33.41,108.67,108.67,0,0,0,0-171.23Z" transform="translate(-7.43 17.79)"/></g><rect id="Suspender_Right-2" data-name="Suspender Right" class="cls-14" x="1279.13" y="1365.96" width="60.87" height="243.61"/><rect id="Suspender_Left-2" data-name="Suspender Left" class="cls-14" x="1007.22" y="1365.96" width="58.02" height="243.61"/><polygon id="Collar_Right-2" data-name="Collar Right" class="cls-15" points="1224.78 1339.67 1173.61 1390.83 1224.16 1441.38 1299.53 1366.02 1273.18 1339.67 1224.78 1339.67"/><polygon id="Collar_Left-2" data-name="Collar Left" class="cls-15" points="1122.45 1339.67 1173.61 1390.83 1123.06 1441.38 1047.69 1366.02 1074.04 1339.67 1122.45 1339.67"/><polygon id="Neck-2" data-name="Neck" class="cls-20" points="1173.61 1390.8 1148.58 1365.96 1198.65 1365.96 1173.61 1390.8"/><path id="Cute_Mouth-2" data-name="Cute Mouth" class="cls-21" d="M1143.32,1251.26c21.77,21.38,53.46,20.92,74.53,0" transform="translate(-7.43 17.79)"/><path id="Nose-2" data-name="Nose" class="cls-22" d="M1204.1,1178.14a23.52,23.52,0,0,1-47,0Z" transform="translate(-7.43 17.79)"/><rect id="Eye_Right-2" data-name="Eye Right" class="cls-5" x="1075.71" y="1123.94" width="50.22" height="71.98" rx="23.62"/><rect id="Eye_Left-2" data-name="Eye Left" class="cls-5" x="1221.3" y="1123.94" width="50.22" height="71.98" rx="23.62"/></g><g id="Man_Lumberjack:_Medium_Skin_Tone" data-name="Man Lumberjack: Medium Skin Tone"><g id="Outlined-3" data-name="Outlined"><path class="cls-5" d="M654.65,1641.79H7.43V1511.85A213.68,213.68,0,0,1,221.1,1298.17H441c117.82,0,213.68,95.86,213.68,213.68Zm-547.22-100H554.65v-29.94A113.81,113.81,0,0,0,441,1398.17H221.1a113.8,113.8,0,0,0-113.67,113.68Z" transform="translate(-7.43 17.79)"/><path class="cls-5" d="M677.26,1641.54H591.78A65.72,65.72,0,0,1,535,1608.89a73.17,73.17,0,0,1-31.75-60.17v-50.63A73.16,73.16,0,0,1,576.35,1425h1.11V1291.39L749,1472.34a99.79,99.79,0,0,1-71.71,169.2Zm-4.68-99.89h0Zm-46.47-.11h48.66l1.23,0h.75l-15-15.85-35.18-.64h-.44Z" transform="translate(-7.43 17.79)"/><path class="cls-5" d="M677.26,1641.54H591.78A65.72,65.72,0,0,1,535,1608.89a73.17,73.17,0,0,1-31.75-60.17v-50.63A73.16,73.16,0,0,1,576.35,1425h1.11V1291.39L749,1472.34a99.79,99.79,0,0,1-71.71,169.2Zm-4.68-99.89h0Zm-46.47-.11h48.66l1.23,0h.75l-15-15.85-35.18-.64h-.44Z" transform="translate(-7.43 17.79)"/><path class="cls-5" d="M677.26,1641.54H591.78A65.72,65.72,0,0,1,535,1608.89a73.17,73.17,0,0,1-31.75-60.17v-50.63A73.16,73.16,0,0,1,576.35,1425h1.11V1291.39L749,1472.34a99.79,99.79,0,0,1-71.71,169.2Zm-4.68-99.89h0Zm-46.47-.11h48.66l1.23,0h.75l-15-15.85-35.18-.64h-.44Z" transform="translate(-7.43 17.79)"/><g id="Head-5" data-name="Head"><path class="cls-5" d="M340.49,1368.28H320.68c-113.86,0-206.49-92.63-206.49-206.49v-92.12c0-113.87,92.63-206.5,206.49-206.5h19.81c113.86,0,206.49,92.63,206.49,206.5v92.12C547,1275.65,454.35,1368.28,340.49,1368.28ZM320.68,963.17a106.61,106.61,0,0,0-106.49,106.5v92.12a106.61,106.61,0,0,0,106.49,106.49h19.81A106.61,106.61,0,0,0,447,1161.79v-92.12a106.61,106.61,0,0,0-106.49-106.5Z" transform="translate(-7.43 17.79)"/><path class="cls-5" d="M340.49,1369.28H320.68a205.2,205.2,0,0,1-80.7-16.41A208.95,208.95,0,0,1,129.6,1242.49a205.23,205.23,0,0,1-16.41-80.7v-92.12A205.24,205.24,0,0,1,129.6,989,209,209,0,0,1,240,878.58a205.23,205.23,0,0,1,80.7-16.41h19.81a205.23,205.23,0,0,1,80.7,16.41A209,209,0,0,1,531.57,989,205.24,205.24,0,0,1,548,1069.67v92.12a205.2,205.2,0,0,1-16.41,80.7,208.95,208.95,0,0,1-110.38,110.38A205.23,205.23,0,0,1,340.49,1369.28ZM320.68,963.17a106.61,106.61,0,0,0-106.49,106.5v92.12a106.61,106.61,0,0,0,106.49,106.49h19.81A106.61,106.61,0,0,0,447,1161.79v-92.12a106.61,106.61,0,0,0-106.49-106.5Z" transform="translate(-7.43 17.79)"/></g><g id="Hair_Clip-7" data-name="Hair Clip"><g class="cls-23"><path class="cls-5" d="M547,1176H424.21v-93.57a54.67,54.67,0,0,0-54.61-54.6h-78a54.66,54.66,0,0,0-54.6,54.6V1176H114.19V863.17H547Z" transform="translate(-7.43 17.79)"/><path class="cls-5" d="M547,1176H424.21v-93.57a54.67,54.67,0,0,0-54.61-54.6h-78a54.66,54.66,0,0,0-54.6,54.6V1176H114.19V863.17H547Z" transform="translate(-7.43 17.79)"/><path class="cls-5" d="M547,1176H424.21v-93.57a54.67,54.67,0,0,0-54.61-54.6h-78a54.66,54.66,0,0,0-54.6,54.6V1176H114.19V863.17H547Z" transform="translate(-7.43 17.79)"/><path class="cls-5" d="M492.08,1126.64H365.8c-76.3,0-138.38-62.08-138.38-138.38V970.6c0-76.31,62.08-138.39,138.38-138.39H492.08c76.3,0,138.38,62.08,138.38,138.39v17.66C630.46,1064.56,568.38,1126.64,492.08,1126.64ZM365.8,932.21a38.43,38.43,0,0,0-38.38,38.39v17.66a38.43,38.43,0,0,0,38.38,38.38H492.08a38.43,38.43,0,0,0,38.38-38.38V970.6a38.43,38.43,0,0,0-38.38-38.39Z" transform="translate(-7.43 17.79)"/></g></g><rect class="cls-5" x="518.69" y="1226.98" width="151.35" height="315.83"/><path class="cls-5" d="M695.83,1420.14l-31.29-33a94.75,94.75,0,0,0-106.14-21.89l-41.75,18-21.87-39.84a158.74,158.74,0,0,1,0-152.53L516.65,1151l41.75,18a94.81,94.81,0,0,0,106.14-21.89l31.29-33,35.81,28a158.67,158.67,0,0,1,0,250Zm-39.63-153q9,3,17.85,6.83,8.52,3.73,16.58,8.23a59.42,59.42,0,0,0,0-30.12q-8.05,4.5-16.58,8.24Q665.24,1264.17,656.2,1267.12Z" transform="translate(-7.43 17.79)"/><path class="cls-5" d="M695.83,1420.14l-31.29-33a94.75,94.75,0,0,0-106.14-21.89l-41.75,18-21.87-39.84a158.74,158.74,0,0,1,0-152.53L516.65,1151l41.75,18a94.81,94.81,0,0,0,106.14-21.89l31.29-33,35.81,28a158.67,158.67,0,0,1,0,250Zm-39.63-153q9,3,17.85,6.83,8.52,3.73,16.58,8.23a59.42,59.42,0,0,0,0-30.12q-8.05,4.5-16.58,8.24Q665.24,1264.17,656.2,1267.12Z" transform="translate(-7.43 17.79)"/><path class="cls-5" d="M695.83,1420.14l-31.29-33a94.75,94.75,0,0,0-106.14-21.89l-41.75,18-21.87-39.84a158.74,158.74,0,0,1,0-152.53L516.65,1151l41.75,18a94.81,94.81,0,0,0,106.14-21.89l31.29-33,35.81,28a158.67,158.67,0,0,1,0,250Zm-39.63-153q9,3,17.85,6.83,8.52,3.73,16.58,8.23a59.42,59.42,0,0,0,0-30.12q-8.05,4.5-16.58,8.24Q665.24,1264.17,656.2,1267.12Z" transform="translate(-7.43 17.79)"/><path id="Body-3" data-name="Body" class="cls-24" d="M57.43,1591.79v-79.94A163.68,163.68,0,0,1,221.1,1348.17H441a163.68,163.68,0,0,1,163.68,163.68v79.94Z" transform="translate(-7.43 17.79)"/><path class="cls-8" d="M712.89,1507h0l-85.43-90.13V1475l-.48,0H576.35a23.14,23.14,0,0,0-23.07,23.08v50.63a23.13,23.13,0,0,0,22.83,23.06v4.09a15.71,15.71,0,0,0,15.67,15.67h84.05c.16,0,.31,0,.47,0l1,0A49.79,49.79,0,0,0,712.89,1507Z" transform="translate(-7.43 17.79)"/><path class="cls-25" d="M712.89,1507h0l-85.43-90.13V1475l-.48,0H576.35a23.14,23.14,0,0,0-23.07,23.08v50.63a23.13,23.13,0,0,0,22.83,23.06v4.09a15.71,15.71,0,0,0,15.67,15.67h84.05c.16,0,.31,0,.47,0l1,0A49.79,49.79,0,0,0,712.89,1507Z" transform="translate(-7.43 17.79)"/><g id="Head-6" data-name="Head"><rect class="cls-25" x="156.76" y="930.96" width="332.79" height="405.11" rx="156.49"/></g><g id="Hair_Clip-8" data-name="Hair Clip"><g class="cls-23"><path class="cls-10" d="M164.19,913.17V1126H187v-43.57c0-57.53,47.07-104.6,104.6-104.6h78c57.54,0,104.61,47.07,104.61,104.6V1126H497V913.17Z" transform="translate(-7.43 17.79)"/><path class="cls-9" d="M164.19,913.17V1126H187v-43.57c0-57.53,47.07-104.6,104.6-104.6h78c57.54,0,104.61,47.07,104.61,104.6V1126H497V913.17Z" transform="translate(-7.43 17.79)"/><rect id="Hair_Fringe-3" data-name="Hair Fringe" class="cls-9" x="269.99" y="900" width="303.05" height="194.43" rx="88.39"/></g></g><rect id="Axe_Arm-3" data-name="Axe Arm" class="cls-12" x="568.69" y="1276.98" width="51.35" height="215.83"/><path class="cls-13" d="M700.83,1181.51a144.82,144.82,0,0,1-162.22,33.41,108.75,108.75,0,0,0,0,104.41,144.77,144.77,0,0,1,162.22,33.41,108.67,108.67,0,0,0,0-171.23Z" transform="translate(-7.43 17.79)"/></g><rect id="Suspender_Right-3" data-name="Suspender Right" class="cls-14" x="429.13" y="1365.96" width="60.87" height="243.61"/><rect id="Suspender_Left-3" data-name="Suspender Left" class="cls-14" x="157.22" y="1365.96" width="58.02" height="243.61"/><polygon id="Collar_Right-3" data-name="Collar Right" class="cls-15" points="374.78 1339.67 323.61 1390.83 374.16 1441.38 449.53 1366.02 423.18 1339.67 374.78 1339.67"/><polygon id="Collar_Left-3" data-name="Collar Left" class="cls-15" points="272.45 1339.67 323.61 1390.83 273.06 1441.38 197.69 1366.02 224.04 1339.67 272.45 1339.67"/><polygon id="Neck-3" data-name="Neck" class="cls-25" points="323.61 1390.8 298.58 1365.96 348.65 1365.96 323.61 1390.8"/><path id="Cute_Mouth-3" data-name="Cute Mouth" class="cls-26" d="M293.32,1251.26c21.77,21.38,53.46,20.92,74.53,0" transform="translate(-7.43 17.79)"/><path id="Nose-3" data-name="Nose" class="cls-27" d="M354.1,1178.14a23.52,23.52,0,0,1-47,0Z" transform="translate(-7.43 17.79)"/><rect id="Eye_Right-3" data-name="Eye Right" class="cls-5" x="225.71" y="1123.94" width="50.22" height="71.98" rx="23.62"/><rect id="Eye_Left-3" data-name="Eye Left" class="cls-5" x="371.3" y="1123.94" width="50.22" height="71.98" rx="23.62"/></g><g id="Man_Lumberjack:_Medium-Light_Skin_Tone" data-name="Man Lumberjack: Medium-Light Skin Tone"><g id="Outlined-4" data-name="Outlined"><path class="cls-5" d="M2354.65,791.79H1707.43V661.85A213.68,213.68,0,0,1,1921.1,448.17H2141a213.68,213.68,0,0,1,213.68,213.68Zm-547.22-100h447.22V661.85A113.81,113.81,0,0,0,2141,548.17H1921.1a113.8,113.8,0,0,0-113.67,113.68Z" transform="translate(-7.43 17.79)"/><path class="cls-5" d="M2377.26,791.54h-85.48A65.72,65.72,0,0,1,2235,758.89a73.17,73.17,0,0,1-31.75-60.17V648.09A73.16,73.16,0,0,1,2276.35,575h1.11V441.39l171.51,181a99.79,99.79,0,0,1-71.71,169.2Zm-4.63-99.89h0Zm-46.52-.11h48.81l1.15,0h.68l-.15-.15-14.88-15.7-35.17-.64h-.44Z" transform="translate(-7.43 17.79)"/><path class="cls-5" d="M2377.26,791.54h-85.48A65.72,65.72,0,0,1,2235,758.89a73.17,73.17,0,0,1-31.75-60.17V648.09A73.16,73.16,0,0,1,2276.35,575h1.11V441.39l171.51,181a99.79,99.79,0,0,1-71.71,169.2Zm-4.63-99.89h0Zm-46.52-.11h48.81l1.15,0h.68l-.15-.15-14.88-15.7-35.17-.64h-.44Z" transform="translate(-7.43 17.79)"/><path class="cls-5" d="M2377.26,791.54h-85.48A65.72,65.72,0,0,1,2235,758.89a73.17,73.17,0,0,1-31.75-60.17V648.09A73.16,73.16,0,0,1,2276.35,575h1.11V441.39l171.51,181a99.79,99.79,0,0,1-71.71,169.2Zm-4.63-99.89h0Zm-46.52-.11h48.81l1.15,0h.68l-.15-.15-14.88-15.7-35.17-.64h-.44Z" transform="translate(-7.43 17.79)"/><g id="Head-7" data-name="Head"><path class="cls-5" d="M2040.49,518.28h-19.81c-113.86,0-206.49-92.63-206.49-206.49V219.67c0-113.87,92.63-206.5,206.49-206.5h19.81c113.86,0,206.49,92.63,206.49,206.5v92.12C2247,425.65,2154.35,518.28,2040.49,518.28Zm-19.81-405.11a106.61,106.61,0,0,0-106.49,106.5v92.12a106.61,106.61,0,0,0,106.49,106.49h19.81A106.61,106.61,0,0,0,2147,311.79V219.67a106.61,106.61,0,0,0-106.49-106.5Z" transform="translate(-7.43 17.79)"/><path class="cls-5" d="M2040.49,519.28h-19.81a205.23,205.23,0,0,1-80.7-16.41A209,209,0,0,1,1829.6,392.49a205.23,205.23,0,0,1-16.41-80.7V219.67A205.24,205.24,0,0,1,1829.6,139,209,209,0,0,1,1940,28.58a205.23,205.23,0,0,1,80.7-16.41h19.81a205.23,205.23,0,0,1,80.7,16.41A209,209,0,0,1,2231.57,139,205.24,205.24,0,0,1,2248,219.67v92.12a205.23,205.23,0,0,1-16.41,80.7,208.95,208.95,0,0,1-110.38,110.38A205.23,205.23,0,0,1,2040.49,519.28Zm-19.81-406.11a106.61,106.61,0,0,0-106.49,106.5v92.12a106.61,106.61,0,0,0,106.49,106.49h19.81A106.61,106.61,0,0,0,2147,311.79V219.67a106.61,106.61,0,0,0-106.49-106.5Z" transform="translate(-7.43 17.79)"/></g><g id="Hair_Clip-10" data-name="Hair Clip"><g class="cls-28"><path class="cls-5" d="M2247,326H2124.21V232.46a54.66,54.66,0,0,0-54.6-54.6h-78.05a54.66,54.66,0,0,0-54.6,54.6V326H1814.19V13.17H2247Z" transform="translate(-7.43 17.79)"/><path class="cls-5" d="M2247,326H2124.21V232.46a54.66,54.66,0,0,0-54.6-54.6h-78.05a54.66,54.66,0,0,0-54.6,54.6V326H1814.19V13.17H2247Z" transform="translate(-7.43 17.79)"/><path class="cls-5" d="M2247,326H2124.21V232.46a54.66,54.66,0,0,0-54.6-54.6h-78.05a54.66,54.66,0,0,0-54.6,54.6V326H1814.19V13.17H2247Z" transform="translate(-7.43 17.79)"/><path class="cls-5" d="M2192.08,276.65H2065.8c-76.3,0-138.38-62.08-138.38-138.39V120.6c0-76.31,62.08-138.39,138.38-138.39h126.28c76.3,0,138.38,62.08,138.38,138.39v17.66C2330.46,214.57,2268.38,276.65,2192.08,276.65ZM2065.8,82.21a38.43,38.43,0,0,0-38.38,38.39v17.66a38.44,38.44,0,0,0,38.38,38.39h126.28a38.44,38.44,0,0,0,38.38-38.39V120.6a38.43,38.43,0,0,0-38.38-38.39Z" transform="translate(-7.43 17.79)"/></g></g><rect class="cls-5" x="2218.69" y="376.98" width="151.35" height="315.83"/><path class="cls-5" d="M2395.83,570.14l-31.29-33a94.75,94.75,0,0,0-106.14-21.89l-41.75,18-21.87-39.85a158.74,158.74,0,0,1,0-152.53L2216.65,301l41.75,18a94.81,94.81,0,0,0,106.14-21.89l31.29-33,35.81,28a158.67,158.67,0,0,1,0,250Zm-39.63-153q9,3,17.85,6.83,8.52,3.74,16.58,8.23a59.42,59.42,0,0,0,0-30.12q-8.05,4.5-16.58,8.24Q2365.25,414.17,2356.2,417.12Z" transform="translate(-7.43 17.79)"/><path class="cls-5" d="M2395.83,570.14l-31.29-33a94.75,94.75,0,0,0-106.14-21.89l-41.75,18-21.87-39.85a158.74,158.74,0,0,1,0-152.53L2216.65,301l41.75,18a94.81,94.81,0,0,0,106.14-21.89l31.29-33,35.81,28a158.67,158.67,0,0,1,0,250Zm-39.63-153q9,3,17.85,6.83,8.52,3.74,16.58,8.23a59.42,59.42,0,0,0,0-30.12q-8.05,4.5-16.58,8.24Q2365.25,414.17,2356.2,417.12Z" transform="translate(-7.43 17.79)"/><path class="cls-5" d="M2395.83,570.14l-31.29-33a94.75,94.75,0,0,0-106.14-21.89l-41.75,18-21.87-39.85a158.74,158.74,0,0,1,0-152.53L2216.65,301l41.75,18a94.81,94.81,0,0,0,106.14-21.89l31.29-33,35.81,28a158.67,158.67,0,0,1,0,250Zm-39.63-153q9,3,17.85,6.83,8.52,3.74,16.58,8.23a59.42,59.42,0,0,0,0-30.12q-8.05,4.5-16.58,8.24Q2365.25,414.17,2356.2,417.12Z" transform="translate(-7.43 17.79)"/><path id="Body-4" data-name="Body" class="cls-29" d="M1757.43,741.79V661.85A163.68,163.68,0,0,1,1921.1,498.17H2141a163.68,163.68,0,0,1,163.68,163.68v79.94Z" transform="translate(-7.43 17.79)"/><path class="cls-8" d="M2412.89,657h0l-85.43-90.13V625l-.48,0h-50.63a23.14,23.14,0,0,0-23.07,23.08v50.63a23.13,23.13,0,0,0,22.83,23.06v4.09a15.71,15.71,0,0,0,15.67,15.67h84c.16,0,.31,0,.47,0l1,0A49.79,49.79,0,0,0,2412.89,657Z" transform="translate(-7.43 17.79)"/><path class="cls-30" d="M2412.89,657h0l-85.43-90.13V625l-.48,0h-50.63a23.14,23.14,0,0,0-23.07,23.08v50.63a23.13,23.13,0,0,0,22.83,23.06v4.09a15.71,15.71,0,0,0,15.67,15.67h84c.16,0,.31,0,.47,0l1,0A49.79,49.79,0,0,0,2412.89,657Z" transform="translate(-7.43 17.79)"/><g id="Head-8" data-name="Head"><rect class="cls-30" x="1856.76" y="80.96" width="332.79" height="405.11" rx="156.49"/></g><g id="Hair_Clip-11" data-name="Hair Clip"><g class="cls-28"><path class="cls-10" d="M1864.19,63.17V276H1887V232.46c0-57.53,47.07-104.6,104.6-104.6h78c57.54,0,104.61,47.07,104.61,104.6V276H2197V63.17Z" transform="translate(-7.43 17.79)"/><path class="cls-31" d="M1864.19,63.17V276H1887V232.46c0-57.53,47.07-104.6,104.6-104.6h78c57.54,0,104.61,47.07,104.61,104.6V276H2197V63.17Z" transform="translate(-7.43 17.79)"/><rect id="Hair_Fringe-4" data-name="Hair Fringe" class="cls-31" x="1969.99" y="50" width="303.05" height="194.43" rx="88.39"/></g></g><rect id="Axe_Arm-4" data-name="Axe Arm" class="cls-12" x="2268.69" y="426.98" width="51.35" height="215.83"/><path class="cls-13" d="M2400.83,331.51a144.82,144.82,0,0,1-162.22,33.41,108.75,108.75,0,0,0,0,104.41,144.77,144.77,0,0,1,162.22,33.41,108.67,108.67,0,0,0,0-171.23Z" transform="translate(-7.43 17.79)"/></g><rect id="Suspender_Right-4" data-name="Suspender Right" class="cls-14" x="2129.13" y="515.96" width="60.87" height="243.61"/><rect id="Suspender_Left-4" data-name="Suspender Left" class="cls-14" x="1857.22" y="515.96" width="58.02" height="243.61"/><polygon id="Collar_Right-4" data-name="Collar Right" class="cls-15" points="2074.78 489.67 2023.61 540.83 2074.16 591.38 2149.53 516.02 2123.18 489.67 2074.78 489.67"/><polygon id="Collar_Left-4" data-name="Collar Left" class="cls-15" points="1972.45 489.67 2023.61 540.83 1973.06 591.38 1897.69 516.02 1924.04 489.67 1972.45 489.67"/><polygon id="Neck-4" data-name="Neck" class="cls-30" points="2023.61 540.8 1998.58 515.96 2048.65 515.96 2023.61 540.8"/><path id="Cute_Mouth-4" data-name="Cute Mouth" class="cls-32" d="M1993.32,401.26c21.77,21.38,53.46,20.92,74.53,0" transform="translate(-7.43 17.79)"/><path id="Nose-4" data-name="Nose" class="cls-33" d="M2054.1,328.14a23.52,23.52,0,0,1-47,0Z" transform="translate(-7.43 17.79)"/><rect id="Eye_Right-4" data-name="Eye Right" class="cls-5" x="1925.71" y="273.94" width="50.22" height="71.98" rx="23.62"/><rect id="Eye_Left-4" data-name="Eye Left" class="cls-5" x="2071.3" y="273.94" width="50.22" height="71.98" rx="23.62"/></g><g id="Man_Lumberjack:_Light_Skin_Tone" data-name="Man Lumberjack: Light Skin Tone"><g id="Outlined-5" data-name="Outlined"><path class="cls-5" d="M1504.65,791.79H857.43V661.85A213.68,213.68,0,0,1,1071.1,448.17H1291a213.68,213.68,0,0,1,213.68,213.68Zm-547.22-100h447.22V661.85A113.81,113.81,0,0,0,1291,548.17H1071.1A113.8,113.8,0,0,0,957.43,661.85Z" transform="translate(-7.43 17.79)"/><path class="cls-5" d="M1527.26,791.54h-85.48A65.72,65.72,0,0,1,1385,758.89a73.17,73.17,0,0,1-31.75-60.17V648.09A73.16,73.16,0,0,1,1426.35,575h1.11V441.39l171.51,181a99.79,99.79,0,0,1-71.71,169.2Zm-4.63-99.89h0Zm-46.52-.11h48.81l1.15,0h.68l-.15-.15-14.88-15.7-35.17-.64h-.44Z" transform="translate(-7.43 17.79)"/><path class="cls-5" d="M1527.26,791.54h-85.48A65.72,65.72,0,0,1,1385,758.89a73.17,73.17,0,0,1-31.75-60.17V648.09A73.16,73.16,0,0,1,1426.35,575h1.11V441.39l171.51,181a99.79,99.79,0,0,1-71.71,169.2Zm-4.63-99.89h0Zm-46.52-.11h48.81l1.15,0h.68l-.15-.15-14.88-15.7-35.17-.64h-.44Z" transform="translate(-7.43 17.79)"/><path class="cls-5" d="M1527.26,791.54h-85.48A65.72,65.72,0,0,1,1385,758.89a73.17,73.17,0,0,1-31.75-60.17V648.09A73.16,73.16,0,0,1,1426.35,575h1.11V441.39l171.51,181a99.79,99.79,0,0,1-71.71,169.2Zm-4.63-99.89h0Zm-46.52-.11h48.81l1.15,0h.68l-.15-.15-14.88-15.7-35.17-.64h-.44Z" transform="translate(-7.43 17.79)"/><g id="Head-9" data-name="Head"><path class="cls-5" d="M1190.49,518.28h-19.81c-113.86,0-206.49-92.63-206.49-206.49V219.67c0-113.87,92.63-206.5,206.49-206.5h19.81c113.86,0,206.49,92.63,206.49,206.5v92.12C1397,425.65,1304.35,518.28,1190.49,518.28Zm-19.81-405.11a106.61,106.61,0,0,0-106.49,106.5v92.12a106.61,106.61,0,0,0,106.49,106.49h19.81A106.61,106.61,0,0,0,1297,311.79V219.67a106.61,106.61,0,0,0-106.49-106.5Z" transform="translate(-7.43 17.79)"/><path class="cls-5" d="M1190.49,519.28h-19.81a205.23,205.23,0,0,1-80.7-16.41A209,209,0,0,1,979.6,392.49a205.23,205.23,0,0,1-16.41-80.7V219.67A205.24,205.24,0,0,1,979.6,139,209,209,0,0,1,1090,28.58a205.23,205.23,0,0,1,80.7-16.41h19.81a205.23,205.23,0,0,1,80.7,16.41A209,209,0,0,1,1381.57,139,205.24,205.24,0,0,1,1398,219.67v92.12a205.23,205.23,0,0,1-16.41,80.7,208.95,208.95,0,0,1-110.38,110.38A205.23,205.23,0,0,1,1190.49,519.28Zm-19.81-406.11a106.61,106.61,0,0,0-106.49,106.5v92.12a106.61,106.61,0,0,0,106.49,106.49h19.81A106.61,106.61,0,0,0,1297,311.79V219.67a106.61,106.61,0,0,0-106.49-106.5Z" transform="translate(-7.43 17.79)"/></g><g id="Hair_Clip-13" data-name="Hair Clip"><g class="cls-34"><path class="cls-5" d="M1397,326H1274.21V232.46a54.67,54.67,0,0,0-54.61-54.6h-78a54.66,54.66,0,0,0-54.6,54.6V326H964.19V13.17H1397Z" transform="translate(-7.43 17.79)"/><path class="cls-5" d="M1397,326H1274.21V232.46a54.67,54.67,0,0,0-54.61-54.6h-78a54.66,54.66,0,0,0-54.6,54.6V326H964.19V13.17H1397Z" transform="translate(-7.43 17.79)"/><path class="cls-5" d="M1397,326H1274.21V232.46a54.67,54.67,0,0,0-54.61-54.6h-78a54.66,54.66,0,0,0-54.6,54.6V326H964.19V13.17H1397Z" transform="translate(-7.43 17.79)"/><path class="cls-5" d="M1342.08,276.65H1215.8c-76.3,0-138.38-62.08-138.38-138.39V120.6c0-76.31,62.08-138.39,138.38-138.39h126.28c76.3,0,138.38,62.08,138.38,138.39v17.66C1480.46,214.57,1418.38,276.65,1342.08,276.65ZM1215.8,82.21a38.43,38.43,0,0,0-38.38,38.39v17.66a38.44,38.44,0,0,0,38.38,38.39h126.28a38.44,38.44,0,0,0,38.38-38.39V120.6a38.43,38.43,0,0,0-38.38-38.39Z" transform="translate(-7.43 17.79)"/></g></g><rect class="cls-5" x="1368.69" y="376.98" width="151.35" height="315.83"/><path class="cls-5" d="M1545.83,570.14l-31.29-33a94.75,94.75,0,0,0-106.14-21.89l-41.75,18-21.87-39.85a158.74,158.74,0,0,1,0-152.53L1366.65,301l41.75,18a94.81,94.81,0,0,0,106.14-21.89l31.29-33,35.81,28a158.67,158.67,0,0,1,0,250Zm-39.63-153q9,3,17.85,6.83,8.52,3.74,16.58,8.23a59.42,59.42,0,0,0,0-30.12q-8.06,4.5-16.58,8.24Q1515.25,414.17,1506.2,417.12Z" transform="translate(-7.43 17.79)"/><path class="cls-5" d="M1545.83,570.14l-31.29-33a94.75,94.75,0,0,0-106.14-21.89l-41.75,18-21.87-39.85a158.74,158.74,0,0,1,0-152.53L1366.65,301l41.75,18a94.81,94.81,0,0,0,106.14-21.89l31.29-33,35.81,28a158.67,158.67,0,0,1,0,250Zm-39.63-153q9,3,17.85,6.83,8.52,3.74,16.58,8.23a59.42,59.42,0,0,0,0-30.12q-8.06,4.5-16.58,8.24Q1515.25,414.17,1506.2,417.12Z" transform="translate(-7.43 17.79)"/><path class="cls-5" d="M1545.83,570.14l-31.29-33a94.75,94.75,0,0,0-106.14-21.89l-41.75,18-21.87-39.85a158.74,158.74,0,0,1,0-152.53L1366.65,301l41.75,18a94.81,94.81,0,0,0,106.14-21.89l31.29-33,35.81,28a158.67,158.67,0,0,1,0,250Zm-39.63-153q9,3,17.85,6.83,8.52,3.74,16.58,8.23a59.42,59.42,0,0,0,0-30.12q-8.06,4.5-16.58,8.24Q1515.25,414.17,1506.2,417.12Z" transform="translate(-7.43 17.79)"/><path id="Body-5" data-name="Body" class="cls-35" d="M907.43,741.79V661.85A163.68,163.68,0,0,1,1071.1,498.17H1291a163.68,163.68,0,0,1,163.68,163.68v79.94Z" transform="translate(-7.43 17.79)"/><path class="cls-8" d="M1562.89,657h0l-85.43-90.13V625l-.48,0h-50.63a23.14,23.14,0,0,0-23.07,23.08v50.63a23.13,23.13,0,0,0,22.83,23.06v4.09a15.71,15.71,0,0,0,15.67,15.67h84c.16,0,.31,0,.47,0l1,0A49.79,49.79,0,0,0,1562.89,657Z" transform="translate(-7.43 17.79)"/><g id="Head-10" data-name="Head"><rect class="cls-8" x="1006.76" y="80.96" width="332.79" height="405.11" rx="156.49"/></g><g id="Hair_Clip-14" data-name="Hair Clip"><g class="cls-34"><path class="cls-10" d="M1014.19,63.17V276H1037V232.46c0-57.53,47.07-104.6,104.6-104.6h78c57.54,0,104.61,47.07,104.61,104.6V276H1347V63.17Z" transform="translate(-7.43 17.79)"/><rect id="Hair_Fringe-5" data-name="Hair Fringe" class="cls-10" x="1119.99" y="50" width="303.05" height="194.43" rx="88.39"/></g></g><rect id="Axe_Arm-5" data-name="Axe Arm" class="cls-12" x="1418.69" y="426.98" width="51.35" height="215.83"/><path class="cls-13" d="M1550.83,331.51a144.82,144.82,0,0,1-162.22,33.41,108.75,108.75,0,0,0,0,104.41,144.77,144.77,0,0,1,162.22,33.41,108.67,108.67,0,0,0,0-171.23Z" transform="translate(-7.43 17.79)"/></g><rect id="Suspender_Right-5" data-name="Suspender Right" class="cls-14" x="1279.13" y="515.96" width="60.87" height="243.61"/><rect id="Suspender_Left-5" data-name="Suspender Left" class="cls-14" x="1007.22" y="515.96" width="58.02" height="243.61"/><polygon id="Collar_Right-5" data-name="Collar Right" class="cls-15" points="1224.78 489.67 1173.61 540.83 1224.16 591.38 1299.53 516.02 1273.18 489.67 1224.78 489.67"/><polygon id="Collar_Left-5" data-name="Collar Left" class="cls-15" points="1122.45 489.67 1173.61 540.83 1123.06 591.38 1047.69 516.02 1074.04 489.67 1122.45 489.67"/><polygon id="Neck-5" data-name="Neck" class="cls-8" points="1173.61 540.8 1148.58 515.96 1198.65 515.96 1173.61 540.8"/><path id="Cute_Mouth-5" data-name="Cute Mouth" class="cls-36" d="M1143.32,401.26c21.77,21.38,53.46,20.92,74.53,0" transform="translate(-7.43 17.79)"/><path id="Nose-5" data-name="Nose" class="cls-37" d="M1204.1,328.14a23.52,23.52,0,0,1-47,0Z" transform="translate(-7.43 17.79)"/><rect id="Eye_Right-5" data-name="Eye Right" class="cls-5" x="1075.71" y="273.94" width="50.22" height="71.98" rx="23.62"/><rect id="Eye_Left-5" data-name="Eye Left" class="cls-5" x="1221.3" y="273.94" width="50.22" height="71.98" rx="23.62"/></g><g id="Outlined-6" data-name="Outlined"><path class="cls-5" d="M654.65,791.79H7.43V661.85A213.68,213.68,0,0,1,221.1,448.17H441A213.7,213.7,0,0,1,654.65,661.85Zm-547.22-100H554.65V661.85A113.81,113.81,0,0,0,441,548.17H221.1A113.8,113.8,0,0,0,107.43,661.85Z" transform="translate(-7.43 17.79)"/><path class="cls-5" d="M677.26,791.54H591.78A65.72,65.72,0,0,1,535,758.89a73.17,73.17,0,0,1-31.75-60.17V648.09A73.16,73.16,0,0,1,576.35,575h1.11V441.39L749,622.34a99.79,99.79,0,0,1-71.71,169.2Zm-4.63-99.89h0Zm-46.52-.11h48.81l1.15,0h.68l-15-15.85L626.55,675h-.44Z" transform="translate(-7.43 17.79)"/><path class="cls-5" d="M677.26,791.54H591.78A65.72,65.72,0,0,1,535,758.89a73.17,73.17,0,0,1-31.75-60.17V648.09A73.16,73.16,0,0,1,576.35,575h1.11V441.39L749,622.34a99.79,99.79,0,0,1-71.71,169.2Zm-4.63-99.89h0Zm-46.52-.11h48.81l1.15,0h.68l-15-15.85L626.55,675h-.44Z" transform="translate(-7.43 17.79)"/><path class="cls-5" d="M677.26,791.54H591.78A65.72,65.72,0,0,1,535,758.89a73.17,73.17,0,0,1-31.75-60.17V648.09A73.16,73.16,0,0,1,576.35,575h1.11V441.39L749,622.34a99.79,99.79,0,0,1-71.71,169.2Zm-4.63-99.89h0Zm-46.52-.11h48.81l1.15,0h.68l-15-15.85L626.55,675h-.44Z" transform="translate(-7.43 17.79)"/><g id="Head-11" data-name="Head"><path class="cls-5" d="M340.49,518.28H320.68c-113.86,0-206.49-92.63-206.49-206.49V219.67c0-113.87,92.63-206.5,206.49-206.5h19.81C454.35,13.17,547,105.8,547,219.67v92.12C547,425.65,454.35,518.28,340.49,518.28ZM320.68,113.17a106.61,106.61,0,0,0-106.49,106.5v92.12A106.61,106.61,0,0,0,320.68,418.28h19.81A106.61,106.61,0,0,0,447,311.79V219.67a106.61,106.61,0,0,0-106.49-106.5Z" transform="translate(-7.43 17.79)"/><path class="cls-5" d="M340.49,519.28H320.68A205.23,205.23,0,0,1,240,502.87,209,209,0,0,1,129.6,392.49a205.23,205.23,0,0,1-16.41-80.7V219.67A205.24,205.24,0,0,1,129.6,139,209,209,0,0,1,240,28.58a205.23,205.23,0,0,1,80.7-16.41h19.81a205.23,205.23,0,0,1,80.7,16.41A209,209,0,0,1,531.57,139,205.24,205.24,0,0,1,548,219.67v92.12a205.23,205.23,0,0,1-16.41,80.7A208.95,208.95,0,0,1,421.19,502.87,205.23,205.23,0,0,1,340.49,519.28ZM320.68,113.17a106.61,106.61,0,0,0-106.49,106.5v92.12A106.61,106.61,0,0,0,320.68,418.28h19.81A106.61,106.61,0,0,0,447,311.79V219.67a106.61,106.61,0,0,0-106.49-106.5Z" transform="translate(-7.43 17.79)"/></g><g id="Hair_Clip-16" data-name="Hair Clip"><g class="cls-38"><path class="cls-5" d="M547,326H424.21V232.46a54.67,54.67,0,0,0-54.61-54.6h-78a54.66,54.66,0,0,0-54.6,54.6V326H114.19V13.17H547Z" transform="translate(-7.43 17.79)"/><path class="cls-5" d="M547,326H424.21V232.46a54.67,54.67,0,0,0-54.61-54.6h-78a54.66,54.66,0,0,0-54.6,54.6V326H114.19V13.17H547Z" transform="translate(-7.43 17.79)"/><path class="cls-5" d="M547,326H424.21V232.46a54.67,54.67,0,0,0-54.61-54.6h-78a54.66,54.66,0,0,0-54.6,54.6V326H114.19V13.17H547Z" transform="translate(-7.43 17.79)"/><path class="cls-5" d="M492.08,276.65H365.8c-76.3,0-138.38-62.08-138.38-138.39V120.6c0-76.31,62.08-138.39,138.38-138.39H492.08c76.3,0,138.38,62.08,138.38,138.39v17.66C630.46,214.57,568.38,276.65,492.08,276.65ZM365.8,82.21a38.43,38.43,0,0,0-38.38,38.39v17.66a38.44,38.44,0,0,0,38.38,38.39H492.08a38.44,38.44,0,0,0,38.38-38.39V120.6a38.43,38.43,0,0,0-38.38-38.39Z" transform="translate(-7.43 17.79)"/></g></g><rect class="cls-5" x="518.69" y="376.98" width="151.35" height="315.83"/><path class="cls-5" d="M695.83,570.14l-31.29-33A94.75,94.75,0,0,0,558.4,515.25l-41.75,18-21.87-39.85a158.74,158.74,0,0,1,0-152.53L516.65,301l41.75,18a94.81,94.81,0,0,0,106.14-21.89l31.29-33,35.81,28a158.67,158.67,0,0,1,0,250Zm-39.63-153q9,3,17.85,6.83,8.52,3.74,16.58,8.23a59.42,59.42,0,0,0,0-30.12q-8.05,4.5-16.58,8.24Q665.24,414.17,656.2,417.12Z" transform="translate(-7.43 17.79)"/><path class="cls-5" d="M695.83,570.14l-31.29-33A94.75,94.75,0,0,0,558.4,515.25l-41.75,18-21.87-39.85a158.74,158.74,0,0,1,0-152.53L516.65,301l41.75,18a94.81,94.81,0,0,0,106.14-21.89l31.29-33,35.81,28a158.67,158.67,0,0,1,0,250Zm-39.63-153q9,3,17.85,6.83,8.52,3.74,16.58,8.23a59.42,59.42,0,0,0,0-30.12q-8.05,4.5-16.58,8.24Q665.24,414.17,656.2,417.12Z" transform="translate(-7.43 17.79)"/><path class="cls-5" d="M695.83,570.14l-31.29-33A94.75,94.75,0,0,0,558.4,515.25l-41.75,18-21.87-39.85a158.74,158.74,0,0,1,0-152.53L516.65,301l41.75,18a94.81,94.81,0,0,0,106.14-21.89l31.29-33,35.81,28a158.67,158.67,0,0,1,0,250Zm-39.63-153q9,3,17.85,6.83,8.52,3.74,16.58,8.23a59.42,59.42,0,0,0,0-30.12q-8.05,4.5-16.58,8.24Q665.24,414.17,656.2,417.12Z" transform="translate(-7.43 17.79)"/><path id="Body-6" data-name="Body" class="cls-39" d="M57.43,741.79V661.85A163.68,163.68,0,0,1,221.1,498.17H441A163.68,163.68,0,0,1,604.65,661.85v79.94Z" transform="translate(-7.43 17.79)"/><path class="cls-8" d="M712.89,657h0l-85.43-90.13V625l-.48,0H576.35a23.14,23.14,0,0,0-23.07,23.08v50.63a23.13,23.13,0,0,0,22.83,23.06v4.09a15.71,15.71,0,0,0,15.67,15.67h84.05c.16,0,.31,0,.47,0l1,0A49.79,49.79,0,0,0,712.89,657Z" transform="translate(-7.43 17.79)"/><path class="cls-40" d="M712.89,657h0l-85.43-90.13V625l-.48,0H576.35a23.14,23.14,0,0,0-23.07,23.08v50.63a23.13,23.13,0,0,0,22.83,23.06v4.09a15.71,15.71,0,0,0,15.67,15.67h84.05c.16,0,.31,0,.47,0l1,0A49.79,49.79,0,0,0,712.89,657Z" transform="translate(-7.43 17.79)"/><g id="Head-12" data-name="Head"><rect class="cls-40" x="156.76" y="80.96" width="332.79" height="405.11" rx="156.49"/></g><g id="Hair_Clip-17" data-name="Hair Clip"><g class="cls-38"><path class="cls-10" d="M164.19,63.17V276H187V232.46c0-57.53,47.07-104.6,104.6-104.6h78c57.54,0,104.61,47.07,104.61,104.6V276H497V63.17Z" transform="translate(-7.43 17.79)"/><path class="cls-20" d="M164.19,63.17V276H187V232.46c0-57.53,47.07-104.6,104.6-104.6h78c57.54,0,104.61,47.07,104.61,104.6V276H497V63.17Z" transform="translate(-7.43 17.79)"/><rect id="Hair_Fringe-6" data-name="Hair Fringe" class="cls-20" x="269.99" y="50" width="303.05" height="194.43" rx="88.39"/></g></g><rect id="Axe_Arm-6" data-name="Axe Arm" class="cls-12" x="568.69" y="426.98" width="51.35" height="215.83"/><path class="cls-13" d="M700.83,331.51a144.82,144.82,0,0,1-162.22,33.41,108.75,108.75,0,0,0,0,104.41,144.77,144.77,0,0,1,162.22,33.41,108.67,108.67,0,0,0,0-171.23Z" transform="translate(-7.43 17.79)"/></g><rect id="Suspender_Right-6" data-name="Suspender Right" class="cls-14" x="429.13" y="515.96" width="60.87" height="243.61"/><rect id="Suspender_Left-6" data-name="Suspender Left" class="cls-14" x="157.22" y="515.96" width="58.02" height="243.61"/><polygon id="Collar_Right-6" data-name="Collar Right" class="cls-15" points="374.78 489.67 323.61 540.83 374.16 591.38 449.53 516.02 423.18 489.67 374.78 489.67"/><polygon id="Collar_Left-6" data-name="Collar Left" class="cls-15" points="272.45 489.67 323.61 540.83 273.06 591.38 197.69 516.02 224.04 489.67 272.45 489.67"/><polygon id="Neck-6" data-name="Neck" class="cls-40" points="323.61 540.8 298.58 515.96 348.65 515.96 323.61 540.8"/><path id="Cute_Mouth-6" data-name="Cute Mouth" class="cls-41" d="M293.32,401.26c21.77,21.38,53.46,20.92,74.53,0" transform="translate(-7.43 17.79)"/><path id="Nose-6" data-name="Nose" class="cls-42" d="M354.1,328.14a23.52,23.52,0,0,1-47,0Z" transform="translate(-7.43 17.79)"/><rect id="Eye_Right-6" data-name="Eye Right" class="cls-5" x="225.71" y="273.94" width="50.22" height="71.98" rx="23.62"/><rect id="Eye_Left-6" data-name="Eye Left" class="cls-5" x="371.3" y="273.94" width="50.22" height="71.98" rx="23.62"/></svg>